<?xml version="1.0" encoding="UTF-8"?>
<svg width="26px" height="26px" viewBox="0 0 26 26" version="1.1" xmlns="http://www.w3.org/2000/svg" xmlns:xlink="http://www.w3.org/1999/xlink">
    <title>LOGO</title>
    <g id="页面-1" stroke="none" stroke-width="1" fill="none" fill-rule="evenodd">
        <g id="总览备份-2" transform="translate(-149.000000, -484.000000)" fill="#fff">
            <path d="M170.250077,505.728521 C170.431242,505.936929 170.409159,506.25274 170.200751,506.433906 C166.829675,509.364337 162.151841,510.272342 157.931586,508.817311 C156.427321,508.297339 155.030389,507.496628 153.829805,506.463577 C153.620486,506.283467 153.596807,505.967771 153.776918,505.758451 C153.957028,505.549132 154.272724,505.525453 154.482044,505.705564 C155.586592,506.655981 156.872993,507.393335 158.257907,507.872052 C162.139919,509.210466 166.443374,508.375131 169.544692,505.679196 C169.7531,505.49803 170.068911,505.520114 170.250077,505.728521 Z M153.241549,488.776918 C153.450868,488.957028 153.474547,489.272724 153.294436,489.482044 C152.344019,490.586592 151.606665,491.872993 151.127948,493.257907 C149.789534,497.139919 150.624869,501.443374 153.320804,504.544692 C153.50197,504.7531 153.479886,505.068911 153.271479,505.250077 C153.063071,505.431242 152.74726,505.409159 152.566094,505.200751 C149.635663,501.829675 148.727658,497.151841 150.182689,492.931586 C150.702661,491.427321 151.503372,490.030389 152.536423,488.829805 C152.716533,488.620486 153.032229,488.596807 153.241549,488.776918 Z M171.433906,488.799249 C174.364337,492.170325 175.272342,496.848159 173.817311,501.068414 C173.297339,502.572679 172.496628,503.969611 171.463577,505.170195 C171.283467,505.379514 170.967771,505.403193 170.758451,505.223082 C170.549132,505.042972 170.525453,504.727276 170.705564,504.517956 C171.655981,503.413408 172.393335,502.127007 172.872052,500.742093 C174.210466,496.860081 173.375131,492.556626 170.679196,489.455308 C170.49803,489.2469 170.520114,488.931089 170.728521,488.749923 C170.936929,488.568758 171.25274,488.590841 171.433906,488.799249 Z M169,490 C169.552285,490 170,490.447715 170,491 L170,503 C170,503.552285 169.552285,504 169,504 L155,504 C154.447715,504 154,503.552285 154,503 L154,491 C154,490.447715 154.447715,490 155,490 L169,490 Z M164,500 L155,500 L155,503 L164,503 L164,500 Z M169,500 L165,500 L165,503 L169,503 L169,500 Z M169,495 L160,495 L160,499 L169,499 L169,495 Z M159,495 L155,495 L155,499 L159,499 L159,495 Z M164,491 L155,491 L155,494 L164,494 L164,491 Z M169,491 L165,491 L165,494 L169,494 L169,491 Z M166.068414,485.182689 C167.572679,485.702661 168.969611,486.503372 170.170195,487.536423 C170.379514,487.716533 170.403193,488.032229 170.223082,488.241549 C170.042972,488.450868 169.727276,488.474547 169.517956,488.294436 C168.413408,487.344019 167.127007,486.606665 165.742093,486.127948 C161.860081,484.789534 157.556626,485.624869 154.455308,488.320804 C154.2469,488.50197 153.931089,488.479886 153.749923,488.271479 C153.568758,488.063071 153.590841,487.74726 153.799249,487.566094 C157.170325,484.635663 161.848159,483.727658 166.068414,485.182689 Z" id="LOGO"></path>
        </g>
    </g>
</svg>