<?xml version="1.0" standalone="no"?><!DOCTYPE svg PUBLIC "-//W3C//DTD SVG 1.1//EN" "http://www.w3.org/Graphics/SVG/1.1/DTD/svg11.dtd"><svg t="1646210111627" class="icon" viewBox="0 0 1258 1024" version="1.1" xmlns="http://www.w3.org/2000/svg" p-id="3096" xmlns:xlink="http://www.w3.org/1999/xlink" width="19.65625" height="16"><defs><style type="text/css"></style></defs><path d="M484.498286 21.942857c220.481829 0 409.014857 150.674286 452.959085 357.1712l1.960229 9.742629-71.855543 13.604571C834.091886 225.748114 673.557943 95.085714 484.498286 95.085714 269.165714 95.085714 95.085714 263.343543 95.085714 470.279314c0 206.935771 174.08 375.1936 389.412572 375.1936 186.309486 0 344.853943-126.858971 381.513143-299.563885l1.755428-8.8064 71.914057 13.399771c-39.584914 212.114286-230.751086 368.113371-455.182628 368.113371-255.1808 0-462.555429-200.440686-462.555429-448.336457C21.942857 222.354286 229.317486 21.942857 484.498286 21.942857z" fill="#293C70" p-id="3097"></path><path d="M497.664 173.641143c130.165029 0 244.3264 81.451886 285.959314 200.060343l2.6624 7.957943-69.690514 22.235428c-29.549714-92.598857-117.730743-157.110857-218.901943-157.110857-126.800457 0-229.229714 100.234971-229.229714 223.524571 0 123.231086 102.429257 223.466057 229.229714 223.466058 99.152457 0 185.782857-61.878857 216.970972-151.3472l2.428342-7.314286 69.866058 21.650286c-38.473143 124.021029-155.384686 210.154057-289.265372 210.154057-166.824229 0-302.372571-132.622629-302.372571-296.638172 0-164.015543 135.519086-296.638171 302.372571-296.638171z" fill="#293C70" p-id="3098"></path><path d="M506.850743 347.018971c32.797257 0 63.956114 11.205486 88.590628 31.188115l5.558858 4.768914-49.064229 54.272a66.940343 66.940343 0 0 0-45.085257-17.086171c-36.2496 0-65.009371 27.618743-65.009372 60.942628 0 33.323886 28.789029 60.971886 65.009372 60.971886 15.798857 0 30.632229-5.3248 42.247314-14.687086l4.213029-3.715657 50.673371 52.750629a139.907657 139.907657 0 0 1-97.133714 38.794971c-75.9808 0-138.152229-59.713829-138.152229-134.114743 0-74.400914 62.171429-134.085486 138.152229-134.085486z" fill="#293C70" p-id="3099"></path><path d="M1120.431543 444.533029a36.571429 36.571429 0 0 1 3.744914 72.967314l-3.744914 0.175543H491.958857a36.571429 36.571429 0 0 1-3.744914-72.938057l3.744914-0.2048h628.472686z" fill="#293C70" p-id="3100"></path><path d="M1178.565486 339.090286a36.571429 36.571429 0 0 1 59.450514 42.422857l-2.340571 3.247543-86.688915 108.368457a36.571429 36.571429 0 0 1-59.421257-42.422857l2.340572-3.2768 86.659657-108.3392z" fill="#293C70" p-id="3101"></path><path d="M1097.581714 441.724343a36.571429 36.571429 0 0 1 48.771657 2.720914l2.633143 2.984229 86.688915 108.368457a36.571429 36.571429 0 0 1-54.447543 48.654628l-2.633143-2.954971-86.718172-108.368457a36.571429 36.571429 0 0 1 5.705143-51.4048zM1048.546743 339.090286a36.571429 36.571429 0 0 1 59.421257 42.422857l-2.340571 3.247543-86.659658 108.368457a36.571429 36.571429 0 0 1-59.450514-42.422857l2.340572-3.2768 86.688914-108.3392z" fill="#293C70" p-id="3102"></path><path d="M967.562971 441.724343a36.571429 36.571429 0 0 1 48.7424 2.720914l2.633143 2.984229 86.718172 108.368457a36.571429 36.571429 0 0 1-54.447543 48.654628l-2.6624-2.954971-86.688914-108.368457a36.571429 36.571429 0 0 1 5.705142-51.4048zM291.050057 846.496914l61.498514 39.584915-88.181028 136.952685H68.695771l105.910858-161.9968 61.205942 40.023772-31.919542 48.830171h20.567771zM751.147886 843.776l61.44-39.701943 141.546057 218.960457h-195.437714l-46.957715-74.1376 61.791086-39.1168 25.3952 40.111543h20.801829z" fill="#293C70" p-id="3103"></path></svg>